<svg width="392" height="248" viewBox="0 0 392 248" fill="none" xmlns="http://www.w3.org/2000/svg">
<g clip-path="url(#clip0_234_31)">
<rect width="392" height="248" rx="6" fill="#1C1919"/>
<rect x="28" y="109" width="69" height="46" rx="8" fill="#AD9C80"/>
<path d="M30.844 76L42.616 50.8H47.044L58.78 76H54.532L46.612 59.08C46.42 58.672 46.216 58.24 46 57.784C45.784 57.304 45.568 56.812 45.352 56.308C45.136 55.804 44.932 55.3 44.74 54.796C44.548 54.268 44.368 53.752 44.2 53.248L45.28 53.212C45.088 53.764 44.884 54.304 44.668 54.832C44.476 55.36 44.26 55.876 44.02 56.38C43.804 56.884 43.588 57.376 43.372 57.856C43.156 58.312 42.952 58.768 42.76 59.224L34.912 76H30.844ZM35.992 70.024L37.504 66.28H51.76L52.588 70.024H35.992ZM78.9783 76.36C77.0103 76.36 75.1743 76.06 73.4703 75.46C71.7663 74.836 70.2663 73.948 68.9703 72.796C67.6983 71.644 66.7023 70.276 65.9823 68.692C65.2863 67.108 64.9383 65.344 64.9383 63.4C64.9383 61.552 65.3103 59.86 66.0543 58.324C66.8223 56.764 67.8543 55.408 69.1503 54.256C70.4463 53.08 71.9463 52.18 73.6503 51.556C75.3543 50.908 77.1543 50.584 79.0503 50.584C80.5863 50.584 82.0623 50.788 83.4783 51.196C84.9183 51.604 86.2143 52.132 87.3663 52.78C88.5423 53.428 89.4783 54.112 90.1743 54.832L87.7983 58C86.9583 57.28 86.0703 56.656 85.1343 56.128C84.2223 55.576 83.2383 55.156 82.1823 54.868C81.1263 54.556 79.9863 54.4 78.7623 54.4C77.5143 54.4 76.3023 54.616 75.1263 55.048C73.9503 55.48 72.8943 56.092 71.9583 56.884C71.0223 57.652 70.2783 58.6 69.7263 59.728C69.1743 60.832 68.8983 62.056 68.8983 63.4C68.8983 64.888 69.1743 66.196 69.7263 67.324C70.3023 68.452 71.0823 69.412 72.0663 70.204C73.0503 70.972 74.1663 71.56 75.4143 71.968C76.6623 72.352 77.9703 72.544 79.3383 72.544C80.6583 72.544 81.8463 72.376 82.9023 72.04C83.9583 71.704 84.9063 71.272 85.7463 70.744C86.5863 70.216 87.3543 69.688 88.0503 69.16L89.9223 72.4C89.2743 72.952 88.3863 73.54 87.2583 74.164C86.1543 74.788 84.8943 75.316 83.4783 75.748C82.0623 76.156 80.5623 76.36 78.9783 76.36ZM112.131 76.36C110.163 76.36 108.327 76.06 106.623 75.46C104.919 74.836 103.419 73.948 102.123 72.796C100.851 71.644 99.8546 70.276 99.1346 68.692C98.4386 67.108 98.0906 65.344 98.0906 63.4C98.0906 61.552 98.4626 59.86 99.2066 58.324C99.9746 56.764 101.007 55.408 102.303 54.256C103.599 53.08 105.099 52.18 106.803 51.556C108.507 50.908 110.307 50.584 112.203 50.584C113.739 50.584 115.215 50.788 116.631 51.196C118.071 51.604 119.367 52.132 120.519 52.78C121.695 53.428 122.631 54.112 123.327 54.832L120.951 58C120.111 57.28 119.223 56.656 118.287 56.128C117.375 55.576 116.391 55.156 115.335 54.868C114.279 54.556 113.139 54.4 111.915 54.4C110.667 54.4 109.455 54.616 108.279 55.048C107.103 55.48 106.047 56.092 105.111 56.884C104.175 57.652 103.431 58.6 102.879 59.728C102.327 60.832 102.051 62.056 102.051 63.4C102.051 64.888 102.327 66.196 102.879 67.324C103.455 68.452 104.235 69.412 105.219 70.204C106.203 70.972 107.319 71.56 108.567 71.968C109.815 72.352 111.123 72.544 112.491 72.544C113.811 72.544 114.999 72.376 116.055 72.04C117.111 71.704 118.059 71.272 118.899 70.744C119.739 70.216 120.507 69.688 121.203 69.16L123.075 72.4C122.427 72.952 121.539 73.54 120.411 74.164C119.307 74.788 118.047 75.316 116.631 75.748C115.215 76.156 113.715 76.36 112.131 76.36ZM133.151 76V50.8H153.059V54.544H137.039V72.256H153.059V76H133.151ZM135.203 64.948V61.204H151.079V64.948H135.203Z" fill="#FFF8EC"/>
<rect x="253" y="-0.407227" width="196" height="196" transform="rotate(-45 253 -0.407227)" fill="#A68D65"/>
<path d="M369 19C376.244 29.4367 372.018 39.3486 369 43" stroke="#FFF8EC" stroke-width="2.5" stroke-linecap="round"/>
<path d="M365 22C370.433 29.8275 367.264 37.2615 365 40" stroke="#FFF8EC" stroke-width="2.5" stroke-linecap="round"/>
<path d="M361 25C364.622 30.2183 362.509 35.1743 361 37" stroke="#FFF8EC" stroke-width="2.5" stroke-linecap="round"/>
<path d="M357 28C358.811 30.6092 357.755 33.0872 357 34" stroke="#FFF8EC" stroke-width="2.5" stroke-linecap="round"/>
</g>
<defs>
<clipPath id="clip0_234_31">
<rect width="392" height="248" rx="16" fill="white"/>
</clipPath>
</defs>
</svg>
